<svg xmlns="http://www.w3.org/2000/svg" width="17" height="19" id="icon-stopwatch" y="403"><path fill-rule="evenodd" fill="#BAC1C8" d="M8 2.999a8 8 0 1 1 0 16A8 8 0 0 1 8 3z"/><path fill-rule="evenodd" fill="#F8FAFC" d="M7.997 3.995a7.002 7.002 0 1 1 0 14.004 7.002 7.002 0 0 1 0-14.004z"/><path fill-rule="evenodd" fill="#9099A2" d="M7 .999h2v2H7v-2z"/><path fill-rule="evenodd" fill="#BAC1C8" d="M5 0h6v2H5V0z"/><path fill-rule="evenodd" fill="#A3ABB3" d="M12.967 2.016l3.239 2.347-1.173 1.619-3.239-2.346 1.173-1.62z"/><path fill-rule="evenodd" fill="#EF3A3A" d="M11.621 7.878a.5.5 0 0 1 0 .707l-3.535 3.536a.5.5 0 0 1-.707-.707l3.535-3.536a.5.5 0 0 1 .707 0z"/></svg>