<svg xmlns="http://www.w3.org/2000/svg" width="16" height="16" id="icon-soccer-ball" y="179">
    <path fill-rule="evenodd" fill="#40484B" d="M8-.001a8 8 0 1 1 0 16A8 8 0 0 1 8 0z" />
    <path fill-rule="evenodd" fill="#F8FAFC"
        d="M7.982.526a7.455 7.455 0 1 1-.001 14.909A7.455 7.455 0 0 1 7.982.526z" />
    <path fill-rule="evenodd" opacity=".6" fill="#40484B"
        d="M13.687 11.643l-.174-.052 1.054-3.455.174.053-1.054 3.454zM10.28 7.058l2.964-.982.057.173-2.964.982-.057-.173zm-.04-5.165l.102-.151 2.854 1.927-.102.151-2.854-1.927zm.888 10.399l-1.891-2.4.143-.113 1.891 2.4-.143.113zM7.909 2.526h.182v4.109h-.182V2.526zM4.144 13.128L6.453 9.91l.148.106-2.309 3.218-.148-.106zm-1.372-6.77l.056-.173 3.109 1-.056.173-3.109-1zm-.097-2.652L5.602 1.67l.104.149-2.927 2.036-.104-.149zm-1.49 4.426l.175-.048 1.019 3.801-.176.047-1.018-3.8zm9.124 6.267H6.127v-.182h4.182v.182z" />
    <path fill-rule="evenodd" fill="#40484B"
        d="M7.982 5.281l2.533 1.84-.968 2.978H6.416l-.968-2.978 2.534-1.84zM7.991 2.817l2.536-.882-.309-1.427H5.763l-.308 1.427 2.536.882zM12.904 6.306l1.642 2.124 1.255-.746-1.415-4.224-1.451.161-.031 2.685zM2.982 6.296L1.343 8.417.091 7.672l1.412-4.218 1.448.16.031 2.682zM4.807 12.191l1.605 2.147-1.053 1.007-3.686-2.49.542-1.353 2.592.689zM11.121 12.144L9.57 14.329l1.081.977 3.624-2.583-.579-1.335-2.575.756z" />
</svg>