<svg xmlns="http://www.w3.org/2000/svg" width="16" height="16" id="icon-soccer-ball-own-goal"
    y="213">
    <path fill-rule="evenodd" fill="#C12323"
        d="M8-.001a8 8 0 1 1 0 15.999 8 8 0 0 1-8-8A7.999 7.999 0 0 1 8-.001z" />
    <path fill-rule="evenodd" fill="#F8FAFC"
        d="M7.982.525a7.455 7.455 0 0 1 7.454 7.455 7.455 7.455 0 1 1-14.909 0A7.455 7.455 0 0 1 7.982.525z" />
    <path fill-rule="evenodd" opacity=".6" fill="#40484B"
        d="M13.687 11.643l-.174-.053 1.054-3.454.174.053-1.054 3.454zM10.28 7.058l2.964-.982.057.172-2.964.982-.057-.172zm-.04-5.166l.102-.151 2.854 1.928-.102.15-2.854-1.927zm.888 10.399l-1.891-2.4.143-.113 1.891 2.401-.143.112zM7.909 2.526h.182v4.109h-.182V2.526zM4.144 13.128l2.309-3.219.148.106-2.309 3.218-.148-.105zm-1.372-6.77l.056-.173 3.109 1-.056.173-3.109-1zm-.097-2.652l2.927-2.037.104.15-2.927 2.036-.104-.149zm-1.49 4.425l.175-.047 1.019 3.8-.176.047-1.018-3.8zm9.124 6.268H6.127v-.182h4.182v.182z" />
    <path fill-rule="evenodd" fill="#DD4D4D"
        d="M7.982 5.28l2.533 1.841-.968 2.978H6.416l-.968-2.978L7.982 5.28zM7.991 2.817l2.536-.883-.309-1.426H5.763l-.308 1.426 2.536.883zM12.904 6.305l1.642 2.124 1.255-.746-1.415-4.223-1.451.16-.031 2.685zM2.982 6.295L1.343 8.417.091 7.671l1.412-4.218 1.448.161.031 2.681zM4.807 12.191l1.605 2.146-1.053 1.007-3.686-2.49.542-1.352 2.592.689zM11.121 12.143L9.57 14.328l1.081.977 3.624-2.583-.579-1.335-2.575.756z" />
</svg>