<svg xmlns="http://www.w3.org/2000/svg" width="12" height="16" id="icon-yellow-card" y="475">
    <path fill-rule="evenodd" fill="#FFE035"
        d="M2.4-.002h7.2c1.325 0 2.4.896 2.4 2.001v12c0 1.104-1.075 2-2.4 2H2.4c-1.326 0-2.4-.896-2.4-2v-12C0 .894 1.074-.002 2.4-.002z" />
    <g xmlns="http://www.w3.org/2000/svg"
        transform="translate(0.000000,16.000000) scale(0.0100000,-0.0100000)" stroke="none"
        fill="#EE5353">
        <path
            d="M180 1590 c-89 -26 -149 -81 -169 -155 -7 -27 -11 -242 -11 -658 l0 -618 31 -45 c17 -25 35 -44 40 -42 5 2 240 336 524 743 l515 739 -53 23 c-51 22 -57 22 -452 22 -220 -1 -411 -4 -425 -9z" />
    </g>
</svg>