<svg xmlns="http://www.w3.org/2000/svg" width="20" height="17" id="icon-soccer-shoe" y="369">
    <path fill-rule="evenodd" fill="#202020"
        d="M18.59 8.645a1.021 1.021 0 0 1-1.398-.376l-.512-.891a1.031 1.031 0 0 1 .374-1.405 1.021 1.021 0 0 1 1.399.377l.512.89a1.03 1.03 0 0 1-.375 1.405zm-4.946 1.68l-.512-.891a1.03 1.03 0 0 1 .375-1.404 1.022 1.022 0 0 1 1.399.376l.512.891a1.03 1.03 0 0 1-.375 1.405 1.022 1.022 0 0 1-1.399-.377zm-3.547 2.057l-.512-.891a1.03 1.03 0 0 1 .375-1.405 1.023 1.023 0 0 1 1.399.377l.512.89a1.031 1.031 0 0 1-.375 1.405 1.022 1.022 0 0 1-1.399-.376zM6.55 14.439l-.512-.891a1.03 1.03 0 0 1 .375-1.405 1.022 1.022 0 0 1 1.399.377l.512.89a1.032 1.032 0 0 1-.375 1.405 1.022 1.022 0 0 1-1.399-.376zm-3.547 2.056l-.512-.89a1.031 1.031 0 0 1 .374-1.405 1.022 1.022 0 0 1 1.399.376l.512.891a1.03 1.03 0 0 1-.375 1.405 1.022 1.022 0 0 1-1.398-.377z" />
    <path fill-rule="evenodd" fill="#6F6F6F"
        d="M15.577.747s.228-1.023 1.102-.639c.874.384 2.47 3.303 3.036 4.429.565 1.126.745 2.006-4.171 4.669S2.69 16.658 2.69 16.658s-1.833.36-2.439-.836c-.606-1.196-.082-2.343.99-3.387C2.314 11.391 4.86 8.508 6.894 3.53c0 0 .611-2.558 1.961-1.699 1.351.857 2.953 2.226 5.004 1.037 2.05-1.189 1.718-2.121 1.718-2.121z" />
    <path fill-rule="evenodd" fill="#FFF"
        d="M1.686 8.107a.51.51 0 0 1 .627-.363l4.945 1.33a.515.515 0 0 1-.265.994L2.048 8.737a.514.514 0 0 1-.362-.63zM2.216 6.121a.51.51 0 0 1 .627-.364l4.945 1.331a.514.514 0 0 1-.265.993L2.578 6.75a.512.512 0 0 1-.362-.629zM2.746 4.134a.513.513 0 0 1 .627-.364l4.945 1.331a.514.514 0 0 1-.265.993l-4.945-1.33a.514.514 0 0 1-.362-.63zM14.7 4.963l.887-.514a.51.51 0 0 1 .699.188.515.515 0 0 1-.187.703l-.887.514a.51.51 0 0 1-.699-.188.515.515 0 0 1 .187-.703z" />
</svg>