<svg version="1.0" xmlns="http://www.w3.org/2000/svg" width="400.000000pt" height="300.000000pt"
    viewBox="0 0 400.000000 300.000000" preserveAspectRatio="xMidYMid meet">

    <g transform="translate(0.000000,300.000000) scale(0.100000,-0.100000)" fill="#1b32c5"
        stroke="null">
        <path
            d="M0 1500 l0 -1500 2000 0 2000 0 0 1500 0 1500 -2000 0 -2000 0 0 -1500z m1423 846 c9 -9 19 -11 28 -5 22 14 26 11 34 -18 3 -16 18 -38 32 -50 14 -13 22 -23 17 -24 -5 0 1 -4 14 -10 13 -5 20 -13 17 -19 -4 -6 -10 -8 -15 -5 -5 3 -11 1 -15 -5 -4 -6 7 -13 25 -16 17 -4 33 -11 36 -16 4 -6 -2 -7 -15 -3 -15 4 -21 2 -21 -8 0 -10 7 -13 21 -10 19 5 20 4 10 -15 -6 -12 -23 -25 -36 -28 -15 -4 -25 -13 -25 -24 0 -10 -12 -23 -29 -30 -28 -11 -36 -25 -48 -90 -5 -30 -2 -29 -40 -23 -40 6 -74 37 -66 61 3 9 3 14 -2 10 -13 -12 -33 11 -28 32 3 11 9 17 14 14 5 -3 9 8 9 24 0 29 -21 58 -33 45 -4 -3 -7 5 -7 18 0 32 -34 69 -62 69 -12 0 -18 3 -15 7 4 3 2 12 -4 19 -8 10 -5 15 15 20 34 8 34 34 1 34 -14 0 -25 -6 -25 -13 0 -16 -27 -33 -69 -42 -24 -5 -30 -10 -20 -16 10 -6 4 -12 -21 -23 -21 -9 -27 -15 -17 -16 10 0 16 -3 13 -8 -2 -4 -25 -6 -51 -4 -29 3 -43 7 -35 12 7 5 20 6 29 3 12 -3 11 0 -3 11 -19 15 -19 16 10 16 l29 1 -25 15 c-24 14 -24 15 -2 11 12 -3 22 -1 22 3 0 5 10 11 23 13 22 4 10 6 -76 12 -15 1 -30 4 -33 8 -8 7 73 20 85 13 5 -3 11 -2 13 4 5 14 97 19 154 9 31 -6 51 -6 58 1 5 5 20 10 33 10 13 0 32 9 43 20 24 24 34 25 53 6z m609 -39 c-12 -6 -25 -7 -29 -3 -11 10 18 25 35 18 13 -4 11 -8 -6 -15z m-59 -4 c13 -7 -13 -43 -31 -42 -10 0 -12 3 -4 6 19 7 14 23 -7 23 -11 0 -23 5 -26 10 -6 10 50 12 68 3z m-958 -74 c-4 -5 -21 -9 -38 -9 -24 0 -28 3 -17 10 12 8 10 10 -9 10 -23 0 -24 1 -6 20 18 19 18 19 46 -1 16 -11 27 -25 24 -30z m1804 27 c7 -8 20 -12 31 -9 10 3 26 1 36 -5 15 -8 12 -12 -18 -33 l-35 -24 102 1 c71 1 102 -3 99 -10 -2 -6 6 -17 18 -25 12 -7 23 -10 25 -5 2 5 22 8 44 6 29 -3 40 -1 35 7 -10 16 40 13 89 -4 22 -8 54 -15 72 -15 17 0 33 -5 35 -11 4 -12 108 -20 108 -9 0 5 8 7 18 5 75 -15 73 -14 70 -48 -2 -24 -8 -32 -21 -31 -17 2 -17 1 -2 -16 15 -17 15 -19 -14 -25 -17 -4 -33 -11 -36 -16 -4 -5 -21 -9 -38 -9 -42 0 -58 -11 -61 -42 -4 -33 -47 -83 -58 -66 -4 7 -8 21 -8 30 0 17 6 24 59 71 31 27 37 53 8 28 -8 -6 -22 -8 -31 -5 -10 4 -25 -1 -37 -12 -14 -12 -38 -19 -74 -20 -42 -1 -60 -8 -89 -30 -38 -30 -44 -43 -23 -45 6 -1 19 -2 27 -3 39 -3 -18 -126 -59 -126 -21 0 -64 -47 -51 -55 12 -8 13 -35 2 -35 -5 0 -14 11 -22 24 -15 29 -48 40 -68 24 -12 -10 -11 -14 3 -24 11 -8 13 -14 5 -19 -7 -4 -8 -11 -1 -18 41 -51 -30 -138 -105 -128 -6 1 -17 -6 -24 -14 -10 -13 -10 -19 4 -33 39 -44 2 -91 -39 -52 -18 17 -25 19 -31 8 -6 -9 -10 -6 -14 12 -4 15 -13 24 -23 24 -10 -1 -17 5 -17 15 -1 28 -26 52 -46 44 -36 -13 -94 -68 -94 -89 0 -12 -6 -27 -14 -33 -11 -9 -18 -2 -35 38 -11 27 -21 57 -21 66 0 9 -5 13 -10 10 -6 -4 -20 5 -32 20 -15 20 -27 26 -45 22 -32 -6 -115 19 -126 38 -4 8 -12 15 -17 15 -16 0 -11 -23 10 -50 16 -20 22 -23 37 -14 14 8 22 7 35 -5 16 -15 16 -18 0 -38 -17 -21 -75 -54 -119 -67 -18 -6 -23 -3 -23 11 0 10 -8 30 -17 43 -10 14 -25 38 -34 54 -9 16 -26 37 -39 45 -21 14 -19 8 16 -58 53 -101 77 -125 120 -118 l34 6 -16 -32 c-9 -18 -37 -51 -61 -74 l-45 -42 7 -56 c6 -52 5 -57 -19 -76 -14 -11 -26 -29 -26 -40 0 -23 -23 -62 -59 -101 -18 -21 -34 -28 -60 -28 -33 1 -38 5 -59 48 -12 26 -22 54 -22 62 0 9 -7 26 -16 39 -13 18 -14 28 -5 47 16 37 13 68 -9 97 -11 14 -20 39 -20 56 0 24 -4 31 -20 31 -11 0 -20 5 -20 11 0 10 -76 6 -122 -7 -10 -3 -31 11 -56 36 -37 39 -40 45 -36 90 3 56 16 85 44 100 11 6 20 17 20 25 0 28 41 53 97 60 30 4 66 9 80 11 20 4 24 1 21 -13 -6 -26 83 -69 95 -47 6 10 16 13 30 8 11 -4 41 -8 65 -10 37 -2 45 1 54 22 14 29 11 33 -33 38 -19 2 -37 4 -41 5 -5 0 -8 7 -8 15 0 20 56 37 100 30 45 -7 60 8 29 30 -13 9 -19 21 -16 30 4 11 1 13 -11 9 -9 -4 -20 -11 -24 -17 -5 -8 -11 -7 -19 1 -16 16 -49 -11 -49 -39 0 -11 -7 -18 -20 -18 -12 0 -24 -10 -30 -22 -5 -13 -9 -18 -9 -11 -1 20 -84 99 -89 84 -2 -7 6 -23 19 -37 33 -35 18 -38 -20 -4 -40 37 -71 33 -116 -15 -53 -56 -95 -56 -95 0 0 32 2 34 37 37 40 3 52 19 30 39 -11 11 -5 18 36 46 27 18 53 33 58 33 5 0 10 10 10 23 1 16 2 18 6 5 4 -16 32 -25 58 -18 6 2 19 4 29 5 11 1 23 11 27 23 5 14 14 20 24 16 11 -5 14 -2 9 10 -4 11 -1 16 12 16 11 0 26 5 34 11 11 7 5 9 -25 7 -34 -3 -40 0 -43 18 -2 11 4 27 13 34 18 15 20 30 3 30 -7 0 -26 -16 -42 -36 -23 -29 -26 -38 -15 -45 9 -6 10 -12 4 -16 -5 -5 -15 -17 -21 -27 -16 -30 -33 -30 -40 -2 -5 22 -10 24 -35 19 -26 -5 -29 -3 -29 19 0 18 11 33 35 49 19 13 35 27 35 31 0 11 42 48 75 65 37 20 100 29 91 14 -4 -6 -1 -11 6 -11 20 0 81 -19 98 -30 23 -15 -6 -30 -41 -20 -25 8 -27 6 -20 -13 11 -29 32 -32 60 -8 13 12 28 18 32 15 5 -3 9 4 9 15 0 12 5 21 10 21 6 0 9 -3 9 -7 -3 -20 3 -22 24 -9 12 7 42 14 66 15 25 0 48 7 52 13 6 10 15 10 40 1 32 -12 53 -9 33 5 -15 11 -11 32 10 48 29 21 31 18 34 -31 1 -33 -3 -47 -13 -51 -8 -4 -12 -10 -9 -15 8 -13 44 9 44 28 0 13 3 13 15 3 10 -9 15 -9 15 -1 0 10 -13 15 -32 12 -5 0 -8 10 -8 24 0 22 3 24 19 15 25 -13 41 -13 21 0 -13 8 -12 10 4 10 11 0 27 -7 37 -16 16 -15 17 -14 12 5 -3 12 -9 21 -14 21 -5 0 -9 5 -9 10 0 6 14 10 30 10 19 0 30 5 30 14 0 17 17 23 80 31 25 3 51 12 59 20 19 19 25 19 40 1z m-419 -27 c-13 -6 -32 -17 -42 -26 -9 -8 -23 -13 -30 -11 -17 6 51 48 77 47 17 0 16 -2 -5 -10z m-1500 -23 c0 -2 -11 -1 -25 2 -14 2 -22 8 -19 13 4 8 44 -6 44 -15z m-185 -26 c-11 -5 -27 -9 -35 -9 -13 -1 -13 0 0 9 8 5 24 9 35 9 l20 0 -20 -9z m101 -15 c14 -13 14 -15 1 -15 -9 0 -24 -3 -34 -6 -17 -5 -17 -5 -1 9 10 8 15 17 11 20 -3 4 -3 7 1 7 4 0 14 -7 22 -15z m94 0 c0 -17 -2 -18 -25 -9 -13 5 -14 8 -3 15 19 13 28 11 28 -6z m72 4 c2 -7 24 -11 51 -11 26 1 47 -2 47 -7 0 -4 -24 -8 -54 -9 -45 0 -55 3 -59 19 -5 20 9 27 15 8z m1351 -9 c3 -11 2 -20 -3 -20 -12 0 -31 26 -23 33 11 12 21 7 26 -13z m-1568 0 c-3 -5 -13 -10 -21 -10 -8 0 -12 5 -9 10 3 6 13 10 21 10 8 0 12 -4 9 -10z m-57 -29 l24 -6 -31 -22 c-38 -29 -65 -22 -49 13 12 25 17 26 56 15z m272 -6 c0 -2 -9 -9 -20 -15 -16 -9 -20 -8 -20 5 0 8 9 15 20 15 11 0 20 -2 20 -5z m-65 -15 c11 -19 -5 -30 -25 -18 -14 9 -16 14 -7 20 16 10 25 10 32 -2z m110 -17 l8 -28 6 25 c8 28 41 41 41 16 0 -12 7 -14 30 -9 17 3 30 1 30 -4 0 -5 16 -15 35 -21 23 -9 32 -18 28 -28 -3 -10 5 -18 26 -25 17 -6 31 -14 31 -18 0 -16 -14 -20 -27 -9 -17 14 -31 2 -15 -14 17 -17 15 -31 -2 -25 -8 3 -17 1 -19 -6 -3 -8 -10 -7 -24 6 -11 9 -30 18 -44 18 -20 1 -21 2 -4 6 21 6 35 21 35 38 0 19 -64 49 -100 47 -41 -2 -75 20 -67 43 10 23 24 18 32 -12z m292 12 c0 -8 -4 -12 -9 -9 -5 3 -6 10 -3 15 9 13 12 11 12 -6z m-507 -10 c9 -5 11 -4 6 3 -4 7 -1 12 8 12 9 0 16 -6 16 -14 0 -8 9 -21 21 -29 19 -14 20 -15 2 -20 -10 -2 -33 -5 -51 -6 -18 -1 -36 -2 -40 -3 -4 -1 -18 4 -32 10 l-25 11 30 2 c28 2 28 2 5 6 -26 5 -42 21 -34 35 6 9 76 4 94 -7z m154 -36 c-8 -14 -34 -11 -34 4 0 8 3 17 7 20 9 9 34 -13 27 -24z m-537 -1 c43 -6 93 -11 111 -10 18 0 30 -4 27 -9 -3 -5 1 -6 9 -3 9 3 14 9 11 13 -5 9 25 8 103 -3 28 -5 52 -12 52 -17 0 -5 13 -9 29 -9 17 0 33 -5 37 -11 5 -8 9 -7 15 3 6 11 21 13 64 8 48 -5 57 -3 70 14 11 14 18 17 21 9 3 -7 12 -9 20 -6 9 3 14 0 12 -7 -5 -22 20 -22 27 -1 6 21 25 29 25 12 0 -5 3 -17 7 -27 5 -13 3 -16 -10 -11 -9 3 -22 0 -29 -7 -7 -7 -19 -11 -26 -10 -7 1 -8 0 -2 -3 20 -9 10 -23 -17 -23 -22 0 -25 -2 -13 -10 10 -7 11 -10 2 -10 -7 0 -17 -11 -24 -24 -8 -20 -7 -28 5 -40 9 -9 19 -16 23 -16 22 0 82 -35 90 -53 14 -31 34 -33 34 -3 0 13 4 27 9 31 6 3 7 28 4 55 l-6 49 31 -9 c42 -11 52 -18 52 -36 0 -8 9 -14 20 -14 11 0 20 5 20 11 0 8 5 8 15 -1 8 -7 15 -18 15 -26 0 -7 14 -22 30 -34 17 -12 30 -25 30 -29 0 -12 -48 -31 -79 -31 -42 0 -44 -10 -9 -37 18 -12 28 -24 22 -24 -19 -4 -40 -6 -56 -8 -10 0 -18 -8 -18 -16 0 -8 -6 -15 -14 -15 -15 0 -46 -41 -46 -61 0 -6 -11 -20 -25 -31 -20 -15 -23 -25 -18 -50 4 -22 3 -29 -5 -24 -7 4 -12 13 -12 21 0 26 -83 28 -132 3 -23 -11 -24 -71 -2 -92 19 -20 29 -20 48 -1 22 23 37 18 30 -9 -5 -20 -2 -25 17 -28 17 -2 25 -12 30 -35 7 -35 -5 -35 -29 -1 -7 10 -22 18 -32 18 -10 0 -22 5 -25 10 -3 6 -15 10 -25 10 -32 0 -100 31 -100 45 0 17 -80 110 -94 110 -13 0 -85 73 -87 89 -5 42 -3 92 5 98 12 8 -11 38 -30 38 -8 0 -14 6 -14 13 0 16 -67 92 -83 93 -6 0 -19 3 -27 6 -49 18 -91 25 -96 17 -3 -5 -10 -9 -15 -9 -6 0 -7 4 -4 10 13 22 -25 -3 -40 -26 -17 -27 -38 -33 -28 -9 3 9 2 15 -3 14 -18 -4 -64 13 -58 22 3 5 0 9 -5 9 -19 0 -12 22 9 27 28 7 25 23 -4 23 -14 0 -27 4 -30 9 -8 12 18 21 43 14 31 -8 25 4 -11 23 l-31 16 48 24 c27 12 52 21 56 18 4 -2 43 -9 86 -16z m1218 -8 c8 -12 -40 -31 -59 -24 -8 3 -17 11 -19 18 -6 16 69 21 78 6z m-590 -76 c13 -5 14 -8 3 -15 -19 -13 -28 -11 -28 6 0 17 2 18 25 9z m705 -46 c0 -5 9 -23 21 -39 22 -31 23 -30 -28 -44 -12 -4 -12 13 0 33 5 7 2 19 -7 28 -17 17 -20 27 -10 37 9 8 24 -1 24 -15z m-32 -40 c-3 -13 -18 -28 -30 -28 -5 0 -4 19 1 38 3 9 30 -1 29 -10z m1459 -50 c-3 -8 -6 -5 -6 6 -1 11 2 17 5 13 3 -3 4 -12 1 -19z m-1837 -103 c0 -1 -13 0 -30 3 -26 4 -28 7 -19 24 10 19 11 19 30 -3 10 -12 19 -23 19 -24z m1850 25 c0 -5 -9 -10 -21 -10 -11 0 -17 5 -14 10 3 6 13 10 21 10 8 0 14 -4 14 -10z m-34 -63 c-6 -26 -41 -45 -71 -39 -16 4 -13 7 15 16 19 6 39 21 45 33 12 28 19 22 11 -10z m-2406 -172 c7 -9 8 -15 2 -15 -5 0 -12 7 -16 15 -3 8 -4 15 -2 15 2 0 9 -7 16 -15z m2217 -55 c-1 -12 -5 -16 -10 -11 -5 5 -6 14 -3 20 11 16 15 13 13 -9z m-1852 -28 c-3 -3 -11 0 -18 7 -9 10 -8 11 6 5 10 -3 15 -9 12 -12z m55 -6 c0 -3 -4 -8 -10 -11 -5 -3 -10 -1 -10 4 0 6 5 11 10 11 6 0 10 -2 10 -4z m1404 -41 c3 -8 1 -15 -4 -15 -6 0 -10 7 -10 15 0 8 2 15 4 15 2 0 6 -7 10 -15z m216 -42 c0 -25 -16 -13 -34 24 l-17 36 25 -24 c14 -13 26 -30 26 -36z m220 37 c0 -5 -4 -10 -10 -10 -5 0 -10 5 -10 10 0 6 5 10 10 10 6 0 10 -4 10 -10z m-75 -20 c3 -5 -1 -10 -10 -10 -8 0 -18 -7 -21 -15 -4 -8 -13 -15 -22 -15 -12 0 -10 6 8 25 25 27 35 30 45 15z m-1821 -62 c5 8 14 8 32 2 14 -6 29 -8 33 -5 5 2 23 -7 41 -20 19 -14 42 -25 51 -25 25 0 52 -40 38 -56 -8 -10 -5 -13 13 -12 45 3 134 -27 142 -47 3 -8 -4 -25 -15 -38 -10 -14 -19 -29 -19 -34 0 -4 -5 -24 -10 -44 -8 -29 -18 -39 -50 -52 -24 -9 -40 -22 -40 -32 0 -25 -50 -85 -70 -85 -11 0 -17 -7 -16 -17 0 -12 -7 -19 -21 -21 -13 -2 -23 -10 -23 -18 0 -8 -7 -14 -15 -14 -8 0 -15 -9 -15 -19 0 -11 -5 -23 -10 -26 -6 -4 -8 -15 -5 -24 3 -10 -1 -24 -10 -31 -19 -16 -19 -29 2 -52 15 -17 15 -18 0 -18 -10 0 -17 7 -17 15 0 8 -6 15 -14 15 -18 0 -24 8 -31 48 -3 17 0 34 6 38 7 4 9 22 4 50 -3 24 -2 52 4 62 6 11 13 55 17 100 7 78 6 80 -19 97 -58 37 -92 144 -58 178 6 6 11 20 11 32 0 11 10 32 23 47 18 22 23 24 28 11 4 -12 8 -13 13 -5z m1772 -50 c46 -43 54 -58 30 -58 -8 0 -30 23 -50 50 -20 28 -33 50 -30 50 3 0 25 -19 50 -42z m145 -27 c-15 -28 -70 -11 -71 22 0 4 13 7 29 7 18 0 32 7 37 18 7 15 8 14 11 -5 3 -12 0 -31 -6 -42z m56 -7 c0 -7 -4 -11 -8 -8 -4 2 -10 -2 -12 -8 -3 -7 -6 -4 -6 8 -1 11 5 21 12 21 8 0 14 -6 14 -13z m113 5 c0 -7 10 -9 25 -5 34 9 87 -15 109 -48 l17 -27 -24 16 c-17 11 -27 13 -32 6 -10 -17 -23 -13 -47 14 -12 14 -29 25 -39 25 -9 0 -19 7 -23 15 -3 8 -1 15 4 15 6 0 10 -5 10 -11z m-936 -66 c-18 -75 -52 -122 -55 -75 -3 42 4 67 24 83 31 26 38 23 31 -8z m733 11 c-3 -3 -12 -4 -19 -1 -8 3 -5 6 6 6 11 1 17 -2 13 -5z m227 -58 c-3 -8 3 -19 15 -25 31 -17 41 -13 41 14 0 33 13 32 31 -2 7 -16 28 -46 46 -67 37 -45 41 -73 16 -128 -27 -58 -97 -66 -121 -13 -7 15 -16 24 -21 21 -5 -3 -15 1 -22 10 -14 17 -70 14 -109 -6 -11 -6 -29 -15 -40 -20 -22 -12 -44 -4 -34 11 3 5 -1 22 -8 37 -23 45 -17 75 18 92 16 9 43 28 59 43 17 16 37 25 46 22 10 -3 19 1 23 10 3 9 18 15 35 15 22 0 29 -4 25 -14z m404 -266 c-9 -14 -14 -16 -20 -7 -13 20 -9 27 12 27 18 0 19 -3 8 -20z m-288 -29 c0 -17 -18 -21 -24 -6 -3 9 0 15 9 15 8 0 15 -4 15 -9z m233 -25 c-17 -24 -43 -35 -43 -19 0 9 54 53 58 48 2 -2 -4 -15 -15 -29z" />
        <path
            d="M2263 1793 c-16 -6 -17 -39 -2 -49 6 -3 8 -17 5 -29 -5 -18 -1 -25 14 -30 11 -3 24 -4 29 0 13 8 7 50 -10 71 -11 13 -11 18 -1 21 6 3 12 9 12 14 0 9 -26 11 -47 2z" />
    </g>
</svg>